<?xml version="1.0" encoding="UTF-8" standalone="no"?>
<!-- Generator: Adobe Illustrator 27.5.0, SVG Export Plug-In . SVG Version: 6.00 Build 0)  -->

<svg
   version="1.1"
   x="0px"
   y="0px"
   viewBox="0 0 750 500"
   style="enable-background:new 0 0 750 500;"
   xml:space="preserve"
   id="svg41"
   sodipodi:docname="logo_bitsecafe.svg"
   inkscape:version="1.4.2 (f4327f4, 2025-05-13)"
   xmlns:inkscape="http://www.inkscape.org/namespaces/inkscape"
   xmlns:sodipodi="http://sodipodi.sourceforge.net/DTD/sodipodi-0.dtd"
   xmlns="http://www.w3.org/2000/svg"
   xmlns:svg="http://www.w3.org/2000/svg"><defs
   id="defs41" /><sodipodi:namedview
   id="namedview41"
   pagecolor="#ffffff"
   bordercolor="#000000"
   borderopacity="0.25"
   inkscape:showpageshadow="2"
   inkscape:pageopacity="0.0"
   inkscape:pagecheckerboard="0"
   inkscape:deskcolor="#d1d1d1"
   inkscape:export-bgcolor="#33ee33ee"
   inkscape:zoom="0.635"
   inkscape:cx="224.40945"
   inkscape:cy="156.69291"
   inkscape:window-width="1920"
   inkscape:window-height="1017"
   inkscape:window-x="-8"
   inkscape:window-y="-8"
   inkscape:window-maximized="1"
   inkscape:current-layer="g11" />

<g
   id="OBJECTS"
   transform="translate(187.07707,2.227108)"
   style="display:inline">
	
	
	
	<g
   id="g14"
   style="display:inline">
		<g
   id="g11"
   transform="matrix(2.4854942,0,0,2.4854942,-240.79359,-365.43431)">
			<g
   id="g6">
				<g
   id="g5">
					<path
   style="fill:#e83d3d"
   d="m 122.371,191.317 c -7.389,8.839 -2.705,22.676 -4.135,32.24 -1.411,9.564 -7.173,13.406 -7.173,13.406 0,0 5.762,3.841 7.173,13.406 1.431,9.564 -3.253,23.401 4.135,32.24 3.724,4.488 8.761,5.468 12.21,5.507 v 10.799 c -23.518,0.098 -30.476,-13.327 -29.418,-30.927 0.939,-15.343 -2.017,-22.156 -6.963,-23.659 -1.372,-0.417 -2.326,-1.653 -2.326,-3.087 v -8.558 c 0,-1.434 0.955,-2.669 2.326,-3.086 4.947,-1.504 7.902,-8.316 6.963,-23.66 -1.058,-17.6 5.899,-31.024 29.418,-30.926 v 10.799 c -3.449,0.038 -8.487,1.018 -12.21,5.506 z"
   id="path4" />
					<path
   style="fill:#e83d3d"
   d="m 215.647,191.317 c 7.389,8.839 2.705,22.676 4.135,32.24 1.411,9.564 7.173,13.406 7.173,13.406 0,0 -5.762,3.841 -7.173,13.406 -1.431,9.564 3.253,23.401 -4.135,32.24 -3.724,4.488 -8.761,5.468 -12.21,5.507 v 10.799 c 23.519,0.098 30.476,-13.327 29.418,-30.927 -0.938,-15.343 2.017,-22.156 6.963,-23.659 1.372,-0.417 2.327,-1.653 2.327,-3.087 v -8.558 c 0,-1.434 -0.955,-2.669 -2.327,-3.086 -4.947,-1.504 -7.902,-8.316 -6.963,-23.66 1.058,-17.6 -5.899,-31.024 -29.417,-30.926 0,0 0,10.799 0,10.799 3.449,0.038 8.486,1.018 12.209,5.506 z"
   id="path5" />
				</g>
			</g>
			<path
   style="fill:#bf8360;fill-opacity:0.627451"
   d="m 143.069,155.298 c -9.525,14.061 15.422,23.133 4.536,39.008 0,0 8.603,-3.798 7.406,-14.571 -1.198,-10.773 -11.205,-12.873 -11.942,-24.437 z"
   id="path6" />
			<path
   style="fill:#bf8360;fill-opacity:0.627451"
   d="m 163.523,155.298 c -9.525,14.061 15.422,23.133 4.536,39.008 0,0 8.603,-3.798 7.406,-14.571 -1.197,-10.773 -11.205,-12.873 -11.942,-24.437 z"
   id="path7" />
			<path
   style="fill:#bf8360;fill-opacity:0.627451"
   d="m 183.684,155.298 c -9.525,14.061 15.422,23.133 4.536,39.008 0,0 8.603,-3.798 7.406,-14.571 -1.197,-10.773 -11.205,-12.873 -11.942,-24.437 z"
   id="path8" />
			<circle
   style="fill:#bf8360;fill-opacity:0.627451"
   cx="152.19"
   cy="222.261"
   r="7.4239998"
   id="circle8" />
			<path
   style="fill:#bf8360;fill-opacity:0.627451"
   d="m 196.01,240.336 c 0,5.883 -4.769,10.651 -10.651,10.651 -5.883,0 -10.651,-4.769 -10.651,-10.651 0,-5.883 4.769,-10.652 10.651,-10.652 5.882,0.001 10.651,4.77 10.651,10.652 z"
   id="path9"
   sodipodi:nodetypes="ssscs" />
			<path
   style="fill:#bf8360;fill-opacity:0.627451"
   d="m 176.501,275.202 c 0,2.618 -2.122,4.74 -4.74,4.74 -2.618,0 -4.74,-2.122 -4.74,-4.74 0,-2.618 2.122,-4.74 4.74,-4.74 2.618,0 4.74,2.122 4.74,4.74 z"
   id="path10"
   sodipodi:nodetypes="sssss" />
			<path
   style="fill:#bf8360;fill-opacity:0.627451"
   d="m 159.614,255.728 c 0,1.686 -1.367,3.053 -3.053,3.053 -1.686,0 -3.053,-1.367 -3.053,-3.053 0,-1.686 1.367,-3.053 3.053,-3.053 1.686,-0.001 3.053,1.366 3.053,3.053 z"
   id="path11" />
		</g>
		<g
   id="g13"
   transform="matrix(2.4854942,0,0,2.4854942,-240.79359,-365.43431)">
			<g
   id="g12">
				<text
   style="font-size:27.9281px;font-family:Lato-Black;fill:#bf8360;fill-opacity:0.627451"
   id="text11"
   x="93.974098"
   y="336.33749">BITSE</text>
			</g>
			<text
   style="font-size:27.9281px;font-family:Lato-Regular;fill:#e83d3d"
   id="text12"
   x="178.561"
   y="336.33749">CAFE</text>
		</g>
	</g>
	
	
</g>
</svg>
